<svg width="26" height="24" viewBox="0 0 26 24" fill="none" xmlns="http://www.w3.org/2000/svg">
<path d="M23.3275 5.98123C23.344 6.24372 23.344 6.50626 23.344 6.76875C23.344 14.775 17.9823 24 8.18277 24C5.16371 24 2.35915 23.0062 0 21.2813C0.428951 21.3375 0.841347 21.3563 1.2868 21.3563C3.77789 21.3563 6.07107 20.4 7.9023 18.7688C5.55965 18.7125 3.59644 16.9688 2.92003 14.5687C3.25001 14.625 3.57994 14.6625 3.92642 14.6625C4.40483 14.6625 4.8833 14.5874 5.3287 14.4563C2.88708 13.8937 1.0558 11.4562 1.0558 8.51249V8.43752C1.76516 8.88752 2.59011 9.16877 3.46441 9.20622C2.02913 8.1187 1.08881 6.26247 1.08881 4.16246C1.08881 3.03748 1.35272 2.00623 1.81468 1.10622C4.43779 4.78122 8.38072 7.18118 12.802 7.44372C12.7195 6.99372 12.67 6.52502 12.67 6.05626C12.67 2.71872 15.0457 0 17.9987 0C19.533 0 20.9188 0.731248 21.8921 1.9125C23.0964 1.65001 24.2512 1.14374 25.2741 0.450003C24.8781 1.85628 24.0368 3.03754 22.9315 3.78748C24.0038 3.6563 25.0432 3.31872 26 2.85002C25.2742 4.04997 24.3668 5.11868 23.3275 5.98123Z" fill="#FCFDFF"/>
</svg>
