<svg width="29" height="27" viewBox="0 0 29 27" fill="none" xmlns="http://www.w3.org/2000/svg">
<path d="M7.25 7.0625H25.375L23.5625 16.6812H9.0625L7.25 7.0625Z" stroke="#FCFDFF" stroke-width="2" stroke-linecap="round"/>
<path d="M10.8743 22.0262C11.5417 22.0262 12.0827 21.5477 12.0827 20.9574C12.0827 20.3672 11.5417 19.8887 10.8743 19.8887C10.207 19.8887 9.66602 20.3672 9.66602 20.9574C9.66602 21.5477 10.207 22.0262 10.8743 22.0262Z" stroke="#FCFDFF" stroke-width="2" stroke-linecap="round"/>
<path d="M21.7493 22.0262C22.4167 22.0262 22.9577 21.5477 22.9577 20.9574C22.9577 20.3672 22.4167 19.8887 21.7493 19.8887C21.082 19.8887 20.541 20.3672 20.541 20.9574C20.541 21.5477 21.082 22.0262 21.7493 22.0262Z" stroke="#FCFDFF" stroke-width="2" stroke-linecap="round"/>
<path d="M7.25 7.0625H3.625" stroke="#FCFDFF" stroke-width="2" stroke-linecap="round"/>
</svg>
